<svg width="24" height="24" viewBox="0 0 24 24" fill="none" xmlns="http://www.w3.org/2000/svg">
<path d="M21.15 2.86025C20.7679 2.47082 20.2835 2.19747 19.7526 2.07183C19.2217 1.94619 18.6661 1.97338 18.15 2.15025L3.99999 6.88025C3.4293 7.06705 2.93068 7.4264 2.57294 7.90869C2.21521 8.39098 2.016 8.97242 2.00283 9.57276C1.98966 10.1731 2.16318 10.7627 2.49942 11.2602C2.83566 11.7577 3.31804 12.1386 3.87999 12.3503L9.11999 14.3503C9.23931 14.3959 9.34795 14.4656 9.43913 14.5551C9.53032 14.6445 9.6021 14.7518 9.64999 14.8703L11.65 20.1203C11.8536 20.6742 12.223 21.152 12.708 21.4884C13.1929 21.8248 13.7698 22.0036 14.36 22.0003H14.43C15.031 21.9893 15.6135 21.7906 16.0959 21.4319C16.5783 21.0733 16.9364 20.5727 17.12 20.0003L21.85 5.83025C22.022 5.31919 22.0476 4.7702 21.9239 4.24534C21.8002 3.72048 21.5321 3.24071 21.15 2.86025V2.86025ZM20 5.20025L15.22 19.3803C15.1645 19.5597 15.053 19.7167 14.9019 19.8283C14.7507 19.9398 14.5678 20.0001 14.38 20.0003C14.1932 20.0033 14.01 19.9495 13.8546 19.8459C13.6992 19.7423 13.579 19.5938 13.51 19.4203L11.51 14.1703C11.365 13.7888 11.1414 13.4421 10.8537 13.1526C10.566 12.8632 10.2206 12.6375 9.83999 12.4903L4.58999 10.4903C4.41288 10.4254 4.26064 10.3065 4.15477 10.1503C4.0489 9.99423 3.99476 9.8088 3.99999 9.62025C4.00014 9.4324 4.0604 9.24952 4.17196 9.09838C4.28352 8.94724 4.44052 8.83576 4.61999 8.78025L18.8 4.05025C18.9628 3.9839 19.1413 3.96613 19.314 3.99908C19.4867 4.03203 19.6462 4.1143 19.7731 4.23594C19.9 4.35758 19.989 4.51338 20.0293 4.68451C20.0695 4.85565 20.0594 5.03478 20 5.20025V5.20025Z"/>
</svg>
